<mxfile host="app.diagrams.net" modified="2023-07-30T16:40:04.432Z" agent="Mozilla/5.0 (Windows NT 10.0; Win64; x64) AppleWebKit/537.36 (KHTML, like Gecko) Chrome/115.0.0.0 Safari/537.36" etag="SmbL0tDJzbV4VqCI5LwG" version="21.6.6" type="github">
  <diagram name="第 1 页" id="FJpZMy4J1TgVP5ZKH1Y_">
    <mxGraphModel dx="2074" dy="1110" grid="1" gridSize="10" guides="1" tooltips="1" connect="1" arrows="1" fold="1" page="1" pageScale="1" pageWidth="827" pageHeight="1169" math="0" shadow="0">
      <root>
        <mxCell id="0" />
        <mxCell id="1" parent="0" />
        <mxCell id="2lLS0CJ4ZgAdk6hDirGW-1" value="" style="endArrow=none;html=1;rounded=0;" edge="1" parent="1">
          <mxGeometry width="50" height="50" relative="1" as="geometry">
            <mxPoint x="250" y="540" as="sourcePoint" />
            <mxPoint x="600" y="540" as="targetPoint" />
          </mxGeometry>
        </mxCell>
        <mxCell id="2lLS0CJ4ZgAdk6hDirGW-2" value="MVx" style="text;strokeColor=none;align=center;fillColor=none;html=1;verticalAlign=middle;whiteSpace=wrap;rounded=0;fontSize=22;fontColor=#240066;" vertex="1" parent="1">
          <mxGeometry x="384" y="495" width="60" height="30" as="geometry" />
        </mxCell>
        <mxCell id="2lLS0CJ4ZgAdk6hDirGW-3" value="MVC,MVP,MVVM,etc" style="text;strokeColor=none;align=center;fillColor=none;html=1;verticalAlign=middle;whiteSpace=wrap;rounded=0;fontSize=22;" vertex="1" parent="1">
          <mxGeometry x="380" y="559" width="60" height="30" as="geometry" />
        </mxCell>
      </root>
    </mxGraphModel>
  </diagram>
</mxfile>
